<?xml version="1.0" standalone="no"?>
<!DOCTYPE svg PUBLIC "-//W3C//DTD SVG 20010904//EN"
 "http://www.w3.org/TR/2001/REC-SVG-20010904/DTD/svg10.dtd">
<svg version="1.0" xmlns="http://www.w3.org/2000/svg"
 width="700.000000pt" height="700.000000pt" viewBox="0 0 700.000000 700.000000"
 preserveAspectRatio="xMidYMid meet">
<metadata>
Created by potrace 1.11, written by Peter Selinger 2001-2013
</metadata>
<g transform="translate(0.000000,700.000000) scale(0.100000,-0.100000)"
fill="#000000" stroke="none">
<path d="M3308 6735 c-2 -1 -43 -5 -93 -9 -151 -10 -319 -32 -385 -51 -8 -2
-31 -6 -50 -9 -71 -11 -298 -78 -430 -128 -586 -219 -1105 -624 -1460 -1139
-27 -39 -47 -77 -43 -83 3 -6 2 -7 -2 -3 -9 8 -81 -97 -112 -163 -9 -19 -25
-47 -35 -62 -10 -14 -18 -32 -18 -39 0 -7 -6 -20 -13 -28 -21 -25 -105 -222
-154 -359 -39 -112 -105 -350 -117 -427 -3 -16 -12 -70 -20 -120 -8 -49 -18
-120 -21 -156 -4 -36 -8 -86 -11 -110 -6 -70 -6 -325 1 -429 47 -734 369
-1444 890 -1965 148 -148 165 -163 295 -266 301 -238 695 -441 1040 -535 91
-26 243 -62 280 -69 19 -3 62 -10 95 -16 157 -28 308 -38 545 -34 135 2 256 5
270 8 14 3 50 8 80 12 78 9 91 11 125 18 17 4 46 9 65 12 71 12 283 66 373 96
507 170 904 420 1278 804 68 70 110 118 222 256 41 49 209 304 248 374 189
344 322 743 364 1090 4 28 8 61 11 75 22 139 22 580 0 720 -3 14 -10 59 -16
100 -6 41 -14 89 -16 105 -26 166 -131 500 -217 693 -117 261 -302 554 -477
756 -55 63 -279 286 -340 338 -344 293 -759 513 -1186 631 -106 30 -261 64
-324 72 -25 3 -52 8 -60 10 -8 2 -46 6 -83 10 -37 3 -78 8 -90 11 -25 5 -404
14 -409 9z m218 -1514 c69 -52 1513 -1505 1524 -1534 14 -40 12 -98 -5 -122
-8 -11 -356 -361 -772 -778 -820 -821 -790 -794 -871 -768 -31 10 -195 169
-804 780 -754 753 -767 767 -773 812 -5 34 -2 55 9 77 16 31 1509 1531 1543
1551 10 6 39 11 64 11 35 0 55 -7 85 -29z"/>
</g>
</svg>
